HIERARCHY
ROOT hip
{
	OFFSET 0.000000 0.000000 0.000000 
	CHANNELS 6 Xposition Yposition Zposition Xrotation Zrotation Yrotation
	JOINT abdomen
	{
		OFFSET 0.000000 3.402643 0.000000 
		CHANNELS 3 Xrotation Zrotation Yrotation
		JOINT chest
		{
			OFFSET 0.000000 8.438565 -0.680529 
			CHANNELS 3 Xrotation Zrotation Yrotation
			JOINT neck
			{
				OFFSET 0.000000 10.207942 -0.272212 
				CHANNELS 3 Xrotation Zrotation Yrotation
				JOINT head
				{
					OFFSET 0.000000 3.130431 0.000000 
					CHANNELS 3 Xrotation Zrotation Yrotation
					End Site
					{
						OFFSET 0.000000 3.130435 0.000000 
					}
				}
			}
			JOINT lCollar
			{
				OFFSET 3.470700 6.669187 -0.816635 
				CHANNELS 3 Yrotation Zrotation Xrotation
				JOINT lShldr
				{
					OFFSET 3.198488 0.000000 0.000000 
					CHANNELS 3 Zrotation Yrotation Xrotation
					JOINT lForeArm
					{
						OFFSET 10.139888 0.000000 0.000000 
						CHANNELS 3 Yrotation Zrotation Xrotation
						JOINT lHand
						{
							OFFSET 8.370511 0.000000 0.000000 
							CHANNELS 3 Zrotation Yrotation Xrotation
							End Site
							{
								OFFSET 4.083176 0.000000 0.000000 
							}
						}
					}
				}
			}
			JOINT rCollar
			{
				OFFSET -3.470700 6.669187 -0.816635 
				CHANNELS 3 Yrotation Zrotation Xrotation
				JOINT rShldr
				{
					OFFSET -3.198488 0.000000 0.000000 
					CHANNELS 3 Zrotation Yrotation Xrotation
					JOINT rForeArm
					{
						OFFSET -10.139888 0.000000 0.000000 
						CHANNELS 3 Yrotation Zrotation Xrotation
						JOINT rHand
						{
							OFFSET -8.370511 0.000000 0.000000 
							CHANNELS 3 Zrotation Yrotation Xrotation
							End Site
							{
								OFFSET -4.083176 0.000000 0.000000 
							}
						}
					}
				}
			}
		}
	}
	JOINT lThigh
	{
		OFFSET 5.308129 -1.633274 1.361059 
		CHANNELS 3 Xrotation Zrotation Yrotation
		JOINT lShin
		{
			OFFSET -2.041588 -20.007561 0.000000 
			CHANNELS 3 Xrotation Zrotation Yrotation
			JOINT lFoot
			{
				OFFSET 0.000000 -19.190928 -1.224953 
				CHANNELS 3 Xrotation Yrotation Zrotation
				End Site
				{
					OFFSET 0.000000 -2.449906 4.627600 
				}
			}
		}
	}
	JOINT rThigh
	{
		OFFSET -5.308129 -1.633274 1.361059 
		CHANNELS 3 Xrotation Zrotation Yrotation
		JOINT rShin
		{
			OFFSET 2.041588 -20.007561 0.000000 
			CHANNELS 3 Xrotation Zrotation Yrotation
			JOINT rFoot
			{
				OFFSET 0.000000 -19.190928 -1.224953 
				CHANNELS 3 Xrotation Yrotation Zrotation
				End Site
				{
					OFFSET 0.000000 -2.449906 4.627600 
				}
			}
		}
	}
}
MOTION
Frames: 15
Frame Time: 0.016667
0.867817 41.477196 0.624445 9.566220 -1.964510 -2.733500 -15.237300 2.768990 1.513570 13.168500 2.169360 0.617415 18.849199 -10.906300 31.137501 -8.603520 0.000000 0.000000 2.000000 -2.000000 0.000000 -104.764999 -51.991100 -110.454002 78.223198 -0.242753 0.133887 5.572380 0.064184 -150.660004 -2.000000 2.000000 0.000000 75.697098 28.208000 -165.501999 -122.041000 0.147495 0.097863 -176.727005 174.070999 4.896890 -34.389744 10.792436 0.020734 45.521687 2.088460 3.229494 -14.338208 -2.719985 0.685047 -32.306389 -0.413965 4.202707 47.318287 -1.701072 -3.451561 -24.613924 0.735061 -0.398022 
0.848956 41.440201 0.482198 9.721330 -1.742210 -2.935300 -15.327600 2.733840 1.308170 12.981800 2.371720 0.495513 18.804199 -11.191800 31.581400 -8.603520 0.000000 0.000000 2.000000 -2.000000 0.000000 -108.805000 -54.516998 -105.889999 77.910698 -0.243483 0.133733 5.573370 -0.004027 -149.858994 -2.000000 2.000000 0.000000 75.016899 29.347300 -168.292999 -123.731003 0.144352 0.095831 -176.595993 174.153000 6.230950 -34.230953 10.662506 0.511198 44.773788 2.142523 3.180591 -14.755644 -2.225774 0.808430 -32.881599 -0.632187 4.113516 47.622116 -1.686911 -3.456401 -24.674044 1.072914 -0.234354 
0.838738 41.412289 0.360452 9.857020 -1.520200 -3.213500 -15.397100 2.636360 1.130630 12.814900 2.486920 0.384996 18.855400 -11.671900 31.958401 -8.603520 0.000000 0.000000 2.000000 -2.000000 0.000000 66.807098 -123.561996 78.763100 77.324799 -0.244849 0.133433 5.570950 -0.120994 -148.647995 -2.000000 2.000000 0.000000 74.502098 30.310400 -170.834000 -125.274002 0.141535 0.093894 -176.513000 174.201004 7.006320 -33.969868 10.592329 1.028776 43.959652 2.155450 3.136394 -15.116388 -1.841601 0.910058 -33.285107 -0.826625 4.091181 47.798409 -1.680913 -3.458567 -24.731754 1.361938 -0.090647 
0.838341 41.396713 0.256402 9.992860 -1.307980 -3.541150 -15.465200 2.431940 0.972616 12.698200 2.389480 0.295584 18.970400 -12.164200 32.312000 -8.603520 0.000000 0.000000 2.000000 -2.000000 0.000000 62.518299 -122.216003 83.188904 76.553299 -0.246642 0.133017 5.562300 -0.251011 -147.289993 -2.000000 2.000000 0.000000 -105.739998 148.932999 6.989990 -126.651001 0.139065 0.092103 -176.485992 174.223999 7.299740 -33.817307 10.542421 1.412929 43.410107 2.176394 3.118145 -15.366346 -1.650137 0.977189 -33.754696 -0.963064 4.148263 47.974701 -1.674164 -3.460721 -24.729950 1.603486 0.032872 
0.837314 41.390099 0.165760 10.167900 -1.105410 -3.840970 -15.533200 2.214760 0.808392 12.601200 2.263190 0.211399 19.007099 -12.533800 32.610001 -8.603520 0.000000 0.000000 2.000000 -2.000000 0.000000 58.541500 -121.426003 87.117699 75.762299 -0.248475 0.132566 5.565260 -0.353545 -146.167007 -2.000000 2.000000 0.000000 -105.885002 148.380997 5.135880 -127.822998 0.136998 0.090532 -176.466995 174.237000 7.496010 -33.944996 10.492689 1.528642 43.144394 2.194457 3.101592 -15.316262 -1.673204 0.998254 -34.103485 -1.056776 4.271880 48.006062 -1.653724 -3.489644 -24.708139 1.811550 0.145608 
0.829886 41.387108 0.088615 10.353000 -0.960666 -4.033050 -15.591800 2.044770 0.631672 12.523400 2.185400 0.111794 18.911800 -12.731500 32.903400 -8.603520 0.000000 0.000000 2.000000 -2.000000 0.000000 55.089699 -121.123001 90.372498 75.010300 -0.250211 0.132114 5.559780 -0.422923 -145.404999 -2.000000 2.000000 0.000000 -106.030998 148.065002 3.525330 -128.731003 0.135418 0.089285 -176.429993 174.261993 7.888540 -34.067650 10.436544 1.490226 42.958641 2.187271 3.093107 -15.203596 -1.747726 1.003515 -34.465145 -1.103166 4.412513 48.055641 -1.654145 -3.507814 -24.632650 1.922957 0.193942 
0.811061 41.388279 0.025332 10.489500 -0.864221 -4.173800 -15.611700 1.938410 0.458732 12.464900 2.165740 0.024415 18.808599 -12.914100 33.170700 -8.603520 0.000000 0.000000 2.000000 -2.000000 0.000000 52.278900 -121.230003 92.873901 74.326698 -0.251784 0.131683 5.552150 -0.468626 -144.936005 -2.000000 2.000000 0.000000 -106.185997 147.973999 2.119300 -129.414001 0.134242 0.088331 3.617550 5.713120 -171.699005 -34.234257 10.427282 1.488985 42.860287 2.193260 3.087922 -15.120352 -1.815139 1.001104 -34.717140 -1.057577 4.605543 48.065372 -1.639820 -3.491783 -24.498560 1.872284 0.181022 
0.783678 41.399311 -0.023255 10.557600 -0.777626 -4.344270 -15.611300 1.802330 0.345201 12.455800 2.040000 -0.036213 18.788700 -13.071500 33.369598 -8.603520 0.000000 0.000000 2.000000 -2.000000 0.000000 50.294399 -121.611000 94.574699 73.740799 -0.253128 0.131298 5.546720 -0.498833 -144.632996 -2.000000 2.000000 0.000000 -106.235001 148.108002 0.956858 -129.951004 0.133326 0.087571 3.627800 5.701710 -171.582001 -34.241909 10.463778 1.624691 42.692146 2.214140 3.070376 -15.079610 -1.838685 1.010880 -34.872276 -0.933712 4.901539 48.035984 -1.643758 -3.494372 -24.309387 1.764753 0.130594 
0.754176 41.418655 -0.056011 10.606100 -0.633521 -4.571850 -15.580700 1.586100 0.295191 12.505800 1.788850 -0.057546 18.889500 -13.220400 33.543400 -8.603520 0.000000 0.000000 2.000000 -2.000000 0.000000 49.194500 -122.157997 95.473198 73.272003 -0.254201 0.130981 5.553250 -0.513562 -144.436996 -2.000000 2.000000 0.000000 -106.167999 148.438004 0.106432 -130.391006 0.132582 0.086943 3.616580 5.713270 -171.709000 -34.138504 10.441487 1.826716 42.445633 2.229924 3.042844 -14.999633 -1.732962 1.047087 -34.976006 -0.826380 5.301164 47.987698 -1.638208 -3.502892 -24.099276 1.674332 0.091073 
0.726347 41.443176 -0.075115 10.664400 -0.441460 -4.780470 -15.540200 1.306560 0.242605 12.595100 1.450730 -0.075854 19.038200 -13.410800 33.690601 -8.603520 0.000000 0.000000 2.000000 -2.000000 0.000000 48.901798 -122.752998 95.619904 72.949799 -0.254936 0.130757 5.546890 -0.521023 -144.358994 -2.000000 2.000000 0.000000 -106.031998 148.876007 -0.392700 -130.664001 0.132122 0.086549 3.608760 5.714420 -171.787994 -34.022747 10.319585 1.926731 42.180588 2.239665 3.032707 -14.876726 -1.526715 1.126150 -35.084564 -0.794446 5.671579 47.947475 -1.653931 -3.491458 -23.916496 1.611281 0.081723 
0.693780 41.467590 -0.086117 10.732600 -0.287844 -4.908120 -15.500200 1.083390 0.174052 12.693700 1.151190 -0.100344 19.137600 -13.596200 33.854301 -8.603520 0.000000 0.000000 2.000000 -2.000000 0.000000 49.173000 -123.388000 95.190399 72.783699 -0.255315 0.130641 5.553430 -0.513687 -144.457001 -2.000000 2.000000 0.000000 -105.954002 149.382996 -0.569743 -130.800995 0.131892 0.086351 3.604330 5.724950 -171.845993 -33.947872 10.176263 1.864804 41.965343 2.235956 3.026383 -14.753543 -1.263226 1.191561 -35.178043 -0.780413 5.979381 47.869919 -1.647063 -3.500597 -23.740580 1.607949 0.076720 
0.652857 41.490696 -0.091511 10.820400 -0.211024 -4.972010 -15.480200 0.932826 0.105053 12.762700 0.909490 -0.114700 19.226700 -13.817300 33.997299 -8.603520 0.000000 0.000000 2.000000 -2.000000 0.000000 49.891602 -124.061996 94.348999 72.764198 -0.255359 0.130627 5.549270 -0.483616 -144.759995 -2.000000 2.000000 0.000000 -105.945999 149.968994 -0.522381 -130.820999 0.131859 0.086323 -176.429993 174.261993 7.898260 -33.917130 10.082973 1.713302 41.748814 2.253304 3.018011 -14.586227 -1.033728 1.271218 -35.243210 -0.722910 6.162752 47.760929 -1.648636 -3.465677 -23.548220 1.547440 0.046248 
0.602245 41.511467 -0.092811 10.898500 -0.191790 -4.978370 -15.479800 0.801869 0.060567 12.792500 0.657975 -0.128767 19.315201 -14.046900 34.037601 -8.603520 0.000000 0.000000 2.000000 -2.000000 0.000000 50.980202 -124.775002 93.187103 72.861900 -0.255137 0.130696 5.557390 -0.438272 -145.257996 -2.000000 2.000000 0.000000 -105.898003 150.634003 -0.348271 -130.761993 0.131958 0.086408 -176.475998 174.225998 7.397870 -33.918068 10.039219 1.501419 41.582512 2.247872 3.009909 -14.454118 -0.834563 1.333818 -35.285980 -0.628219 6.299633 47.683270 -1.646716 -3.476528 -23.375563 1.479089 0.022681 
0.539488 41.529377 -0.092500 10.966800 -0.162984 -4.963250 -15.489200 0.677741 0.034267 12.792700 0.435425 -0.127723 19.365499 -14.186800 34.026798 -8.603520 0.000000 0.000000 2.000000 -2.000000 0.000000 52.321899 -125.527000 91.808502 72.988800 -0.254847 0.130785 5.557130 -0.376823 -145.912994 -2.000000 2.000000 0.000000 -105.820999 151.328003 -0.071512 -130.595993 0.132237 0.086648 -176.526001 174.190002 6.858620 -33.905037 10.018515 1.372225 41.414635 2.269597 3.001470 -14.319020 -0.706950 1.368996 -35.317261 -0.533945 6.417920 47.625103 -1.645225 -3.487365 -23.233734 1.375978 -0.010699 
0.466385 41.544048 -0.089759 11.005900 -0.115032 -4.885670 -15.479400 0.639248 0.014756 12.792800 0.377368 -0.129574 19.352699 -14.359300 33.895302 -8.603520 0.000000 0.000000 2.000000 -2.000000 0.000000 -126.385002 -53.671902 -89.656303 73.076698 -0.254647 0.130846 5.570950 -0.306434 -146.645996 -2.000000 2.000000 0.000000 -105.832001 152.022003 0.239322 -130.313004 0.132714 0.087055 -176.587006 174.164001 6.338800 -33.894447 9.972648 1.296114 41.276821 2.274052 2.986709 -14.202170 -0.615562 1.417508 -35.326546 -0.465961 6.515544 47.605545 -1.646370 -3.488486 -23.121334 1.270272 -0.067909 
